<svg width="18" height="24" viewBox="0 0 18 24" fill="none" xmlns="http://www.w3.org/2000/svg">
<g clip-path="url(#clip0_25_3199)">
<path d="M8.14686 0.2578C8.66248 -0.0843872 9.33748 -0.0843872 9.85311 0.2578L10.6875 0.806238C10.9687 0.98905 11.2969 1.07811 11.6297 1.05936L12.6281 0.998425C13.2469 0.960925 13.8281 1.29843 14.1047 1.85155L14.5547 2.74686C14.7047 3.04686 14.9484 3.28593 15.2437 3.43593L16.1484 3.89061C16.7015 4.16718 17.039 4.74843 17.0015 5.36718L16.9406 6.36561C16.9219 6.69843 17.0109 7.03124 17.1937 7.3078L17.7469 8.14218C18.089 8.6578 18.089 9.3328 17.7469 9.84843L17.1937 10.6875C17.0109 10.9687 16.9219 11.2969 16.9406 11.6297L17.0015 12.6281C17.039 13.2469 16.7015 13.8281 16.1484 14.1047L15.2531 14.5547C14.9531 14.7047 14.714 14.9484 14.564 15.2437L14.1094 16.1484C13.8328 16.7016 13.2515 17.0391 12.6328 17.0016L11.6344 16.9406C11.3015 16.9219 10.9687 17.0109 10.6922 17.1937L9.8578 17.7469C9.34217 18.0891 8.66717 18.0891 8.15155 17.7469L7.31248 17.1937C7.03123 17.0109 6.70311 16.9219 6.3703 16.9406L5.37186 17.0016C4.75311 17.0391 4.17186 16.7016 3.8953 16.1484L3.4453 15.2531C3.2953 14.9531 3.05155 14.7141 2.75623 14.5641L1.85155 14.1094C1.29842 13.8328 0.960921 13.2516 0.998421 12.6328L1.05936 11.6344C1.07811 11.3016 0.989046 10.9687 0.806233 10.6922L0.257796 9.85311C-0.0843919 9.33749 -0.0843919 8.66249 0.257796 8.14686L0.806233 7.31249C0.989046 7.03124 1.07811 6.70311 1.05936 6.3703L0.998421 5.37186C0.960921 4.75311 1.29842 4.17186 1.85155 3.8953L2.74686 3.4453C3.04686 3.29061 3.29061 3.04686 3.44061 2.74686L3.89061 1.85155C4.16717 1.29843 4.74842 0.960925 5.36717 0.998425L6.36561 1.05936C6.69842 1.07811 7.03123 0.98905 7.3078 0.806238L8.14686 0.2578ZM12.75 8.99999C12.75 8.00543 12.3549 7.0516 11.6516 6.34834C10.9484 5.64508 9.99454 5.24999 8.99998 5.24999C8.00542 5.24999 7.05159 5.64508 6.34833 6.34834C5.64507 7.0516 5.24998 8.00543 5.24998 8.99999C5.24998 9.99455 5.64507 10.9484 6.34833 11.6516C7.05159 12.3549 8.00542 12.75 8.99998 12.75C9.99454 12.75 10.9484 12.3549 11.6516 11.6516C12.3549 10.9484 12.75 9.99455 12.75 8.99999ZM0.0609207 20.7094L2.08123 15.9047C2.09061 15.9094 2.0953 15.9141 2.09998 15.9234L2.54998 16.8187C3.09842 17.9062 4.23748 18.5672 5.45623 18.4969L6.45467 18.4359C6.46405 18.4359 6.47811 18.4359 6.48748 18.4453L7.32186 18.9984C7.56092 19.1531 7.81405 19.275 8.07655 19.3594L6.31405 23.5453C6.20623 23.8031 5.96717 23.9766 5.69061 24C5.41405 24.0234 5.14686 23.8969 4.99686 23.6625L3.48748 21.3516L0.857796 21.7406C0.590608 21.7781 0.323421 21.6703 0.154671 21.4594C-0.0140793 21.2484 -0.0468918 20.9578 0.0562332 20.7094H0.0609207ZM11.6859 23.5406L9.92342 19.3594C10.1859 19.275 10.439 19.1578 10.6781 18.9984L11.5125 18.4453C11.5219 18.4406 11.5312 18.4359 11.5453 18.4359L12.5437 18.4969C13.7625 18.5672 14.9015 17.9062 15.45 16.8187L15.9 15.9234C15.9047 15.9141 15.9094 15.9094 15.9187 15.9047L17.9437 20.7094C18.0469 20.9578 18.0094 21.2437 17.8453 21.4594C17.6812 21.675 17.4094 21.7828 17.1422 21.7406L14.5125 21.3516L13.0031 23.6578C12.8531 23.8922 12.5859 24.0187 12.3094 23.9953C12.0328 23.9719 11.7937 23.7937 11.6859 23.5406Z" fill="#D4A574"/>
</g>
<defs>
<clipPath id="clip0_25_3199">
<path d="M0 0H18V24H0V0Z" fill="white"/>
</clipPath>
</defs>
</svg>
