<svg width="30" height="24" viewBox="0 0 30 24" fill="none" xmlns="http://www.w3.org/2000/svg">
<g clip-path="url(#clip0_25_3378)">
<path d="M15.1594 3.99375L10.6219 7.66875C9.86719 8.27812 9.72188 9.375 10.2938 10.1578C10.8984 10.9922 12.075 11.1562 12.8859 10.5234L17.5406 6.90469C17.8688 6.65156 18.3375 6.70781 18.5953 7.03594C18.8531 7.36406 18.7922 7.83281 18.4641 8.09062L17.4844 8.85L24 14.85V6H23.9672L23.7844 5.88281L20.3812 3.70312C19.6641 3.24375 18.825 3 17.9719 3C16.95 3 15.9562 3.35156 15.1594 3.99375ZM16.2281 9.825L13.8047 11.7094C12.3281 12.8625 10.1859 12.5625 9.07969 11.0437C8.03906 9.61406 8.30156 7.61719 9.675 6.50625L13.575 3.35156C13.0312 3.12187 12.4453 3.00469 11.85 3.00469C10.9688 3 10.1109 3.2625 9.375 3.75L6 6V16.5H7.32187L11.6063 20.4094C12.525 21.2484 13.9453 21.1828 14.7844 20.2641C15.0422 19.9781 15.2156 19.6453 15.3047 19.2984L16.1016 20.0297C17.0156 20.8687 18.4406 20.8078 19.2797 19.8937C19.4906 19.6641 19.6453 19.3969 19.7438 19.1203C20.6531 19.7297 21.8906 19.6031 22.6547 18.7687C23.4937 17.8547 23.4328 16.4297 22.5187 15.5906L16.2281 9.825ZM0.75 6C0.3375 6 0 6.3375 0 6.75V16.5C0 17.3297 0.670312 18 1.5 18H3C3.82969 18 4.5 17.3297 4.5 16.5V6H0.75ZM2.25 15C2.44891 15 2.63968 15.079 2.78033 15.2197C2.92098 15.3603 3 15.5511 3 15.75C3 15.9489 2.92098 16.1397 2.78033 16.2803C2.63968 16.421 2.44891 16.5 2.25 16.5C2.05109 16.5 1.86032 16.421 1.71967 16.2803C1.57902 16.1397 1.5 15.9489 1.5 15.75C1.5 15.5511 1.57902 15.3603 1.71967 15.2197C1.86032 15.079 2.05109 15 2.25 15ZM25.5 6V16.5C25.5 17.3297 26.1703 18 27 18H28.5C29.3297 18 30 17.3297 30 16.5V6.75C30 6.3375 29.6625 6 29.25 6H25.5ZM27 15.75C27 15.5511 27.079 15.3603 27.2197 15.2197C27.3603 15.079 27.5511 15 27.75 15C27.9489 15 28.1397 15.079 28.2803 15.2197C28.421 15.3603 28.5 15.5511 28.5 15.75C28.5 15.9489 28.421 16.1397 28.2803 16.2803C28.1397 16.421 27.9489 16.5 27.75 16.5C27.5511 16.5 27.3603 16.421 27.2197 16.2803C27.079 16.1397 27 15.9489 27 15.75Z" fill="#D4A574"/>
</g>
<defs>
<clipPath id="clip0_25_3378">
<path d="M0 0H30V24H0V0Z" fill="white"/>
</clipPath>
</defs>
</svg>
