<svg width="11" height="15" viewBox="0 0 11 15" fill="none" xmlns="http://www.w3.org/2000/svg">
<g clip-path="url(#clip0_67_196)">
<path d="M6.18091 14.3046C7.65092 12.465 11.0036 8.00624 11.0036 5.50179C11.0036 2.46434 8.53923 0 5.50179 0C2.46434 0 0 2.46434 0 5.50179C0 8.00624 3.35265 12.465 4.82266 14.3046C5.17512 14.7431 5.82845 14.7431 6.18091 14.3046ZM5.50179 3.66786C5.98817 3.66786 6.45464 3.86107 6.79857 4.205C7.1425 4.54893 7.33571 5.0154 7.33571 5.50179C7.33571 5.98817 7.1425 6.45464 6.79857 6.79857C6.45464 7.1425 5.98817 7.33571 5.50179 7.33571C5.0154 7.33571 4.54893 7.1425 4.205 6.79857C3.86107 6.45464 3.66786 5.98817 3.66786 5.50179C3.66786 5.0154 3.86107 4.54893 4.205 4.205C4.54893 3.86107 5.0154 3.66786 5.50179 3.66786Z" fill="#6B7280"/>
</g>
<defs>
<clipPath id="clip0_67_196">
<path d="M0 0H11.0036V14.6714H0V0Z" fill="white"/>
</clipPath>
</defs>
</svg>
