<svg width="24" height="24" viewBox="0 0 24 24" fill="none" xmlns="http://www.w3.org/2000/svg">
<path d="M22.5 1.50261C22.5 0.897922 22.1344 0.349485 21.5719 0.11511C21.0094 -0.119265 20.3672 0.0119845 19.9359 0.438547L17.8922 2.48698C15.6422 4.73698 12.5906 6.00261 9.40781 6.00261H9H7.5H3C1.34531 6.00261 0 7.34792 0 9.00261V13.5026C0 15.1573 1.34531 16.5026 3 16.5026V22.5026C3 23.3323 3.67031 24.0026 4.5 24.0026H7.5C8.32969 24.0026 9 23.3323 9 22.5026V16.5026H9.40781C12.5906 16.5026 15.6422 17.7682 17.8922 20.0182L19.9359 22.062C20.3672 22.4932 21.0094 22.6198 21.5719 22.3854C22.1344 22.151 22.5 21.6073 22.5 20.9979V14.0839C23.3719 13.6714 24 12.5604 24 11.2526C24 9.9448 23.3719 8.83386 22.5 8.42136V1.50261ZM19.5 5.09792V11.2526V17.4073C16.7437 14.8995 13.1484 13.5026 9.40781 13.5026H9V9.00261H9.40781C13.1484 9.00261 16.7437 7.60573 19.5 5.09792Z" fill="#D4A574"/>
</svg>
