<svg width="24" height="24" viewBox="0 0 24 24" fill="none" xmlns="http://www.w3.org/2000/svg">
<path d="M15.75 16.5C20.3062 16.5 24 12.8062 24 8.25C24 3.69375 20.3062 0 15.75 0C11.1938 0 7.5 3.69375 7.5 8.25C7.5 9.12656 7.63594 9.975 7.88906 10.7672L0.328125 18.3281C0.117188 18.5391 0 18.825 0 19.125V22.875C0 23.4984 0.501562 24 1.125 24H4.875C5.49844 24 6 23.4984 6 22.875V21H7.875C8.49844 21 9 20.4984 9 19.875V18H10.875C11.175 18 11.4609 17.8828 11.6719 17.6719L13.2328 16.1109C14.025 16.3641 14.8734 16.5 15.75 16.5ZM17.625 4.5C18.1223 4.5 18.5992 4.69754 18.9508 5.04917C19.3025 5.40081 19.5 5.87772 19.5 6.375C19.5 6.87228 19.3025 7.34919 18.9508 7.70083C18.5992 8.05246 18.1223 8.25 17.625 8.25C17.1277 8.25 16.6508 8.05246 16.2992 7.70083C15.9475 7.34919 15.75 6.87228 15.75 6.375C15.75 5.87772 15.9475 5.40081 16.2992 5.04917C16.6508 4.69754 17.1277 4.5 17.625 4.5Z" fill="#D4A574"/>
</svg>
